<?xml version="1.0" encoding="UTF-8"?>
<svg xmlns="http://www.w3.org/2000/svg" viewBox="0 0 453 121" role="img" aria-label="Paystand">
  <path fill="#FFFFFF" fill-rule="evenodd" d="M57.00,22.25 L57.00,22.50 L57.25,22.75 L57.50,22.75 L57.75,22.50 L57.75,22.25 L57.50,22.00Z M66.50,22.25 L66.50,22.50 L66.75,22.75 L67.00,22.75 L67.25,22.50 L67.25,22.25 L67.00,22.00Z M415.75,29.25 L415.75,29.50 L416.00,29.75 L416.25,29.75 L416.50,29.50 L416.50,29.25 L416.25,29.00Z M42.50,30.75 L42.50,31.00 L42.75,31.25 L43.00,31.25 L43.25,31.00 L43.25,30.75 L43.00,30.50Z M284.50,34.00 L284.50,34.25 L284.75,34.50 L285.00,34.50 L285.25,34.25 L285.25,34.00 L285.00,33.75Z M67.00,39.25 L67.00,39.50 L67.25,39.75 L67.50,39.75 L67.75,39.50 L67.75,39.25 L67.50,39.00Z M148.75,44.00 L148.75,44.25 L149.00,44.50 L149.25,44.50 L149.50,44.25 L149.50,44.00 L149.25,43.75Z M186.00,44.25 L186.00,44.50 L186.25,44.75 L186.50,44.75 L186.75,44.50 L186.75,44.25 L186.50,44.00Z M255.50,44.25 L255.50,44.50 L255.75,44.75 L256.00,44.75 L256.25,44.50 L256.25,44.25 L256.00,44.00Z M320.75,44.25 L320.75,44.50 L321.00,44.75 L321.25,44.75 L321.50,44.50 L321.50,44.25 L321.25,44.00Z M364.75,44.25 L364.75,44.50 L365.00,44.75 L365.25,44.75 L365.50,44.50 L365.50,44.25 L365.25,44.00Z M208.75,45.00 L208.75,45.25 L209.00,45.50 L209.25,45.50 L209.50,45.25 L209.50,45.00 L209.25,44.75Z M147.00,52.00 L147.00,52.25 L147.25,52.50 L147.50,52.50 L147.75,52.25 L147.75,52.00 L147.50,51.75Z M403.50,52.25 L403.50,52.50 L403.75,52.75 L404.00,52.75 L404.25,52.50 L404.25,52.25 L404.00,52.00Z M186.25,65.50 L186.25,65.75 L186.50,66.00 L186.75,66.00 L187.00,65.75 L187.00,65.50 L186.75,65.25Z M321.00,65.50 L321.00,65.75 L321.25,66.00 L321.50,66.00 L321.75,65.75 L321.75,65.50 L321.50,65.25Z"></path>
</svg>